<svg xmlns="http://www.w3.org/2000/svg" width="49.932" height="31.726" viewBox="0 0 49.932 31.726"><defs><style>.a{fill:#fff;}</style></defs><path class="a" d="M593.08,161.38l-.15-.68H577.67V167h8.83c-.91,4.38-4.71,6.2-8.19,6.2a9.35,9.35,0,0,1-6.66-2.47,9.83,9.83,0,0,1-.12-13.64,9.16,9.16,0,0,1,6.69-2.48,8.44,8.44,0,0,1,5.66,2.06l4.68-4.65a15.82,15.82,0,0,0-10.49-4,15.66,15.66,0,0,0-16,15.88,16,16,0,0,0,4.34,11,16.6,16.6,0,0,0,12,4.84,14.76,14.76,0,0,0,10.75-4.51,15.85,15.85,0,0,0,4.13-11,17.993,17.993,0,0,0-.2-2.84Zm18.89-.67h-5.56v-5.55h-4v5.55h-5.56v4h5.56v5.55h4v-5.55H612Z" transform="translate(-562.068 -148.016)"/></svg>