<svg xmlns="http://www.w3.org/2000/svg" width="180.134" height="180.23" viewBox="0 0 180.134 180.23"><defs><style>.a{fill:#fff;}</style></defs><g transform="translate(0)"><g transform="translate(0)"><path class="a" d="M406.3,207.116a37.645,37.645,0,0,1,37.5,37.548v75.048a37.451,37.451,0,0,1-11.024,26.476,36.97,36.97,0,0,1-26.476,11.024h-75.1a37.644,37.644,0,0,1-37.5-37.5V244.663a37.644,37.644,0,0,1,37.5-37.548h75.1m0-15.019h-75.1a52.664,52.664,0,0,0-52.519,52.567v75.048a52.663,52.663,0,0,0,52.519,52.519h75.1a52.664,52.664,0,0,0,52.519-52.519V244.663A52.663,52.663,0,0,0,406.3,192Z" transform="translate(-278.69 -192)"/></g><path class="a" d="M381.862,220.789a11.216,11.216,0,1,1,7.979-3.285,11.264,11.264,0,0,1-7.979,3.285ZM333.1,228.3a30.038,30.038,0,1,1-30.038,29.99A30.038,30.038,0,0,1,333.1,228.3m0-15.019a45.009,45.009,0,1,0,31.857,13.166A45.057,45.057,0,0,0,333.1,213.279Z" transform="translate(-243.031 -168.125)"/><g transform="translate(0)"><path class="a" d="M406.3,207.116a37.645,37.645,0,0,1,37.5,37.548v75.048a37.451,37.451,0,0,1-11.024,26.476,36.97,36.97,0,0,1-26.476,11.024h-75.1a37.644,37.644,0,0,1-37.5-37.5V244.663a37.644,37.644,0,0,1,37.5-37.548h75.1m0-15.019h-75.1a52.664,52.664,0,0,0-52.519,52.567v75.048a52.663,52.663,0,0,0,52.519,52.519h75.1a52.664,52.664,0,0,0,52.519-52.519V244.663A52.663,52.663,0,0,0,406.3,192Z" transform="translate(-278.69 -192)"/></g></g></svg>