<svg xmlns="http://www.w3.org/2000/svg" width="45.98" height="37.372" viewBox="0 0 45.98 37.372"><defs><style>.a{fill:#fff;}</style></defs><path class="a" d="M801.93,89.55a19.19,19.19,0,0,1-5.41,1.5,9.57,9.57,0,0,0,4.15-5.23,18.86,18.86,0,0,1-6,2.29,9.43,9.43,0,0,0-16.32,6.45,9.661,9.661,0,0,0,.24,2.16,26.75,26.75,0,0,1-19.45-9.87,9.46,9.46,0,0,0,2.94,12.6,9.13,9.13,0,0,1-4.29-1.17v.11a9.44,9.44,0,0,0,7.57,9.26,9.7,9.7,0,0,1-2.48.33,9.512,9.512,0,0,1-1.78-.17,9.44,9.44,0,0,0,8.82,6.55,18.87,18.87,0,0,1-11.72,4,18.623,18.623,0,0,1-2.25-.14,26.36,26.36,0,0,0,14.44,4.27c17.37,0,26.87-14.39,26.87-26.88V94.4a19.209,19.209,0,0,0,4.67-4.85Z" transform="translate(-755.95 -85.118)"/></svg>